# AST/ASF file generated using VICON BodyLanguage
# -----------------------------------------------
:version 1.10
:name VICON
:units
  mass 1.0
  length 0.45
  angle deg
:documentation
   .ast/.asf automatically generated from VICON data using
   VICON BodyBuilder and BodyLanguage model FoxedUp or BRILLIANT.MOD
:root
   order TX TY TZ RX RY RZ
   axis XYZ
   position 0 0 0  
   orientation 0 0 0 
:bonedata
  begin
     id 1 
     name lhipjoint
     direction 0.646821 -0.743844 0.168282 
     length 2.62284 
     axis 0 0 0  XYZ
  end
  begin
     id 2 
     name lfemur
     direction 0.34202 -0.939693 0  
     length 7.79098  
     axis 0 0 20  XYZ
    dof rx ry rz
    limits (-160.0 20.0)
           (-70.0 70.0)
           (-60.0 70.0)
  end
  begin
     id 3 
     name ltibia
     direction 0.34202 -0.939693 0   
     length 8.1986   
     axis 0 0 20   XYZ
    dof rx
    limits (-10.0 170.0)
  end
  begin
     id 4 
     name lfoot
     direction 0.0766762 -0.210666 0.974546   
     length 1.95107   
     axis -90 7.62852e-016 20   XYZ
    dof rx rz
    limits (-45.0 90.0)
           (-70.0 20.0)
  end
  begin
     id 5 
     name ltoes
     direction 1.53582e-011 -4.21539e-011 1   
     length 0.983514   
     axis -90 7.62852e-016 20   XYZ
    dof rx
    limits (-90.0 20.0)
  end
  begin
     id 6 
     name rhipjoint
     direction -0.658967 -0.733632 0.165972   
     length 2.65935  
     axis 0 0 0  XYZ 
  end
  begin
     id 7 
     name rfemur
     direction -0.34202 -0.939693 0   
     length 7.69405   
     axis 0 0 -20   XYZ
    dof rx ry rz
    limits (-160.0 20.0)
           (-70.0 70.0)
           (-70.0 60.0)
  end
  begin
     id 8 
     name rtibia
     direction -0.34202 -0.939693 0   
     length 8.15138   
     axis 0 0 -20   XYZ
    dof rx
    limits (-10.0 170.0)
 end
 begin
     id 9 
     name rfoot
     direction -0.0806473 -0.221577 0.971802   
     length 2.09362  
     axis -90 -7.62852e-016 -20   XYZ
    dof rx rz
    limits (-45.0 90.0)
           (-20.0 70.0)
  end
  begin
     id 10 
     name rtoes
     direction -1.53524e-011 -4.2203e-011 1   
     length 1.05224   
     axis -90 -7.62852e-016 -20   XYZ
    dof rx
    limits (-90.0 20.0)
  end
  begin
     id 11 
     name lowerback
     direction -0.0484271 0.997202 0.0569433   
     length 1.86801   
     axis 0 0 0   XYZ
    dof rx ry rz
    limits (-20.0 45.0)
           (-30.0 30.0)
           (-30.0 30.0)
  end
  begin
     id 12 
     name upperback
     direction 0.0148864 0.998882 0.0448682   
     length 1.86634   
     axis 0 0 0   XYZ
    dof rx ry rz
    limits (-20.0 45.0)
           (-30.0 30.0)
           (-30.0 30.0)
  end
  begin
     id 13 
     name thorax
     direction 0.0368776 0.99918 0.0167067   
     length 1.87554   
     axis 0 0 0   XYZ
    dof rx ry rz
    limits (-20.0 45.0)
           (-30.0 30.0)
           (-30.0 30.0)
  end
  begin
     id 14 
     name lowerneck
     direction -0.0200531 0.999751 0.00976032   
     length 1.82429   
     axis 0 0 0   XYZ
    dof rx ry rz
    limits (-20.0 45.0)
           (-30.0 30.0)
           (-30.0 30.0)
  end
  begin
     id 15 
     name upperneck
     direction 0.0113135 0.99728 -0.0728357   
     length 1.79098   
     axis 0 0 0   XYZ
    dof rx ry rz
    limits (-20.0 45.0)
           (-30.0 30.0)
           (-30.0 30.0)
  end
  begin
     id 16
     name head
     direction 0.00559662 0.999607 -0.0274604  
     length 1.88003  
     axis 0 0 0   XYZ
    dof rx ry rz
    limits (-20.0 45.0)
           (-30.0 30.0)
           (-30.0 30.0)
  end
  begin
     id 17 
     name lclavicle
     direction 0.931914 0.362632 -0.00585704  
     length 3.94155  
     axis 0 0 0   XYZ
    dof ry rz
    limits (-20.0 10.0)
           (0.0 20.0)
  end
  begin
     id 18 
     name lhumerus
     direction 1 -4.48969e-011 2.13403e-027   
     length 5.77473   
     axis 180 -30 -90   XYZ
    dof rx ry rz
    limits (-60.0 90.0)
           (-90.0 90.0)
           (-90.0 90.0)
  end
  begin
     id 19
     name lradius
     direction 1 -4.48969e-011 5.41017e-027   
     length 3.53732   
     axis 180 -30 -90   XYZ
    dof rx
    limits (-10.0 170.0)
  end
  begin
     id 20
     name lwrist
     direction 1 -4.48986e-011 1.36145e-026   
     length 1.76866   
     axis -8.75986e-015 90 90   XYZ
    dof ry
    limits (-180.0 0.0)
 end
  begin
     id 21 
     name lhand
     direction 1 -4.48703e-011 2.72291e-026   
     length 0.556229   
     axis -1.73745e-014 90 90   XYZ
    dof rx rz
    limits (-90.0 90.0)
           (-45.0 45.0)
  end
  begin
     id 22 
     name lfingers
     direction 1 -4.49204e-011 5.44582e-026   
     length 0.448446   
     axis -3.4749e-014 90 90   XYZ
    dof rx
    limits (0.0 90.0)
  end
  begin
     id 23
     name lthumb
     direction 0.707107 -6.34773e-011 0.707107   
     length 0.643881   
     axis -90 45 2.85299e-015   XYZ
    dof rx rz
    limits (-45.0 45.0)
           (-45.0 45.0)
  end
  begin
     id 24 
     name rclavicle
     direction -0.951782 0.300043 0.0639076   
     length 3.96398  
     axis 0 0 0   XYZ 
    dof ry rz
    limits (-10.0 20.0)
           (-20.0 0.0)
  end
  begin
     id 25 
     name rhumerus
     direction -1 -4.48967e-011 6.14867e-028  
     length 5.79581   
     axis 180 30 90   XYZ
    dof rx ry rz
    limits (-90.0 60.0)
           (-90.0 90.0)
           (-90.0 90.0)
  end
  begin
     id 26 
     name rradius
     direction -1 -4.48966e-011 9.26908e-027   
     length 3.37412   
     axis 180 30 90   XYZ
    dof rx
    limits (-10.0 170.0)
  end
  begin
     id 27 
     name rwrist
     direction -1 -4.48999e-011 1.36145e-026   
     length 1.68706   
     axis -8.75986e-015 -90 -90   XYZ
    dof ry
    limits (-180.0 0.0)
  end
  begin
     id 28
     name rhand
     direction -1 -4.49032e-011 2.72291e-026   
     length 0.680496   
     axis -1.73745e-014 -90 -90   XYZ
    dof rx rz
    limits (-90.0 90.0)
           (-45.0 45.0)
  end
  begin
     id 29
     name rfingers
     direction -1 -4.48876e-011 5.44582e-026   
     length 0.548633   
     axis -3.4749e-014 -90 -90   XYZ
    dof rx
    limits (0.0 90.0)
  end
  begin
     id 30
     name rthumb
     direction -0.707107 -6.34964e-011 0.707107   
     length 0.787731   
     axis -90 -45 -2.85299e-015   XYZ
    dof rx rz
    limits (-45.0 45.0)
           (-45.0 45.0)
  end
:hierarchy
  begin
    root lhipjoint rhipjoint lowerback
    lhipjoint lfemur
    lfemur ltibia
    ltibia lfoot
    lfoot ltoes
    rhipjoint rfemur
    rfemur rtibia
    rtibia rfoot
    rfoot rtoes
    lowerback upperback
    upperback thorax
    thorax lowerneck lclavicle rclavicle
    lowerneck upperneck
    upperneck head
    lclavicle lhumerus
    lhumerus lradius
    lradius lwrist
    lwrist lhand lthumb
    lhand lfingers
    rclavicle rhumerus
    rhumerus rradius
    rradius rwrist
    rwrist rhand rthumb
    rhand rfingers
  end

#!OML:ASF H:\Terrain\Patient Classification 1\PaulMetrics\March1\PaulMetrics.ASF
:FULLY-SPECIFIED
:DEGREES
299
root 5.57725 18.4308 16.0271 -29.5203 -78.8537 46.2664
lowerback -6.78727 -2.43181 -8.62339
upperback -6.04598 -3.0324 0.828403
thorax -2.04939 -1.30587 5.54434
lowerneck -2.59096 -6.45883 -6.65027
upperneck 9.51323 -8.87934 5.07794
head 3.7853 -4.45105 2.21992
rclavicle -1.41386e-014 -3.97569e-015
rhumerus -59.1512 20.5629 -97.3498
rradius 44.5662
rwrist -10.3591
rhand -10.6353 -33.2355
rfingers 7.12502
rthumb 15.3718 -62.6441
lclavicle -1.41386e-014 -3.97569e-015
lhumerus -39.2785 -18.6347 71.7815
lradius 64.1485
lwrist 13.3557
lhand -25.0006 -6.12539
lfingers 7.12502
lthumb 1.511 23.849
rfemur -44.9781 -4.8202 21.4389
rtibia 29.3026
rfoot -11.6861 -18.8542
rtoes -13.591
lfemur -14.1091 0.290163 -24.8733
ltibia 21.7961
lfoot -25.3875 11.4751
ltoes -13.9438
300
root 5.43484 18.4193 16.0282 -30.7639 -79.1171 47.6172
lowerback -6.88905 -2.39194 -8.61257
upperback -6.03978 -2.97077 0.844556
thorax -1.99585 -1.27819 5.55505
lowerneck -2.59184 -6.56868 -6.66329
upperneck 9.48858 -9.01657 4.99198
head 3.78315 -4.52239 2.1886
rclavicle -1.16538e-014 -7.95139e-016
rhumerus -59.2641 20.3862 -97.4331
rradius 44.6797
rwrist -10.4535
rhand -10.936 -33.342
rfingers 7.12502
rthumb 15.0821 -62.7726
lclavicle -1.16538e-014 -7.95139e-016
lhumerus -39.044 -18.8996 71.6859
lradius 65.2052
lwrist 13.7694
lhand -24.9469 -5.92073
lfingers 7.12502
lthumb 1.56288 24.0533
rfemur -44.5009 -3.78691 20.8328
rtibia 25.9414
rfoot -11.242 -20.6069
rtoes -15.5821
lfemur -13.4139 0.227332 -24.8636
ltibia 21.2607
lfoot -25.5836 11.6262
ltoes -14.3087
301
root 5.29337 18.394 16.0298 -33.1166 -79.1753 49.9756
lowerback -6.77514 -2.39262 -8.85215
upperback -6.03543 -2.97229 0.821896
thorax -2.0482 -1.26936 5.67067
lowerneck -2.81031 -6.68634 -6.54416
upperneck 9.72685 -9.14502 4.6425
head 3.87803 -4.59337 2.04572
rclavicle 3.26255e-014 3.18055e-015
rhumerus -59.4442 20.3488 -97.4893
rradius 44.9121
rwrist -10.5998
rhand -11.0709 -33.2597
rfingers 7.12502
rthumb 14.9522 -62.6999
lclavicle 3.26255e-014 3.18055e-015
lhumerus -38.8794 -19.0624 71.6683
lradius 66.192
lwrist 14.0872
lhand -25.0088 -6.08115
lfingers 7.12502
lthumb 1.50305 23.8933
rfemur -43.82 -2.80012 19.8315
rtibia 22.5641
rfoot -10.7235 -22.165
rtoes -15.4119
lfemur -12.5735 0.201458 -25.1259
ltibia 20.7521
lfoot -25.8363 11.2486
ltoes -12.905
302
root 5.15006 18.3718 16.032 -34.4574 -79.1977 51.3043
lowerback -6.66442 -2.44183 -8.91141
upperback -6.03677 -3.04641 0.809958
thorax -2.09773 -1.30245 5.69119
lowerneck -2.95027 -6.74607 -6.49789
upperneck 9.91156 -9.2176 4.52533
head 3.95394 -4.63129 1.9908
rclavicle 1.04113e-014 6.36111e-015
rhumerus -59.2027 19.6088 -97.0521
rradius 44.7867
rwrist -9.72366
rhand -10.9245 -32.8549
rfingers 7.12502
rthumb 15.0932 -62.2846
lclavicle 1.04113e-014 6.36111e-015
lhumerus -38.7728 -19.0496 71.6053
lradius 67.1224
lwrist 14.1075
lhand -25.1822 -6.31263
lfingers 7.12502
lthumb 1.33557 23.6629
rfemur -43.0256 -1.30656 18.4866
rtibia 19.2753
rfoot -10.4701 -24.1341
rtoes -12.9638
lfemur -11.7509 0.419775 -25.2472
ltibia 20.2169
lfoot -25.8302 10.8383
ltoes -11.608
303
root 5.00338 18.3619 16.031 -34.6344 -79.2639 51.6605
lowerback -6.85172 -2.52527 -8.73429
upperback -6.05572 -3.15097 0.78266
thorax -2.00412 -1.36645 5.54807
lowerneck -2.99067 -6.74372 -6.40571
upperneck 9.95247 -9.22872 4.5989
head 3.97262 -4.63014 1.99587
rclavicle -1.0461e-014 2.06736e-014
rhumerus -58.0605 17.142 -95.2802
rradius 43.8513
rwrist -6.19438
rhand -11.6871 -34.1305
rfingers 7.12502
rthumb 14.3585 -63.6139
lclavicle -1.0461e-014 2.06736e-014
lhumerus -38.6294 -19.0704 71.4524
lradius 67.9581
lwrist 14.1188
lhand -25.3993 -6.65749
lfingers 7.12502
lthumb 1.12592 23.3193
rfemur -42.3753 0.353817 17.1327
rtibia 16.0473
rfoot -10.8195 -26.4472
rtoes -9.31882
lfemur -11.2053 0.889178 -25.1723
ltibia 19.7009
lfoot -25.6165 10.6758
ltoes -12.4207
304
root 4.85388 18.3551 16.027 -36.5148 -79.1338 53.6981
lowerback -6.99311 -2.59526 -8.90484
upperback -6.06228 -3.22733 0.665854
thorax -1.92118 -1.40673 5.50958
lowerneck -2.8811 -6.78277 -6.21545
upperneck 9.46833 -9.2508 4.31131
head 4.20745 -4.66349 2.0939
rclavicle -4.89507e-015 1.98785e-014
rhumerus -59.2251 19.1184 -97.106
rradius 44.7128
rwrist -8.0098
rhand -10.8201 -34.1997
rfingers 7.12502
rthumb 15.1938 -63.6219
lclavicle -4.89507e-015 1.98785e-014
lhumerus -38.7821 -19.2165 71.338
lradius 69.0611
lwrist 14.3016
lhand -25.5589 -6.74653
lfingers 7.12502
lthumb 0.971739 23.231
rfemur -41.584 2.75677 14.7747
rtibia 12.8449
rfoot -12.8026 -29.1853
rtoes -2.77295
lfemur -10.5903 1.07487 -25.4879
ltibia 19.2632
lfoot -25.1233 11.2287
ltoes -15.7234
